<svg width="30" height="30" viewBox="0 0 30 30" fill="none" xmlns="http://www.w3.org/2000/svg">
<circle cx="15" cy="15" r="13.75" fill="#008485" stroke="#008485" stroke-width="2.5"/>
<g clip-path="url(#clip0_1821_904)">
<path d="M16.0603 6.28292C15.779 6.00202 15.3978 5.84424 15.0003 5.84424C14.6028 5.84424 14.2215 6.00202 13.9403 6.28292L8.28128 11.9389C7.99988 12.2203 7.8418 12.602 7.8418 12.9999C7.8418 13.3979 7.99988 13.7795 8.28128 14.0609C8.56267 14.3423 8.94433 14.5004 9.34228 14.5004C9.74023 14.5004 10.1219 14.3423 10.4033 14.0609L13.5003 10.9649V22.4999C13.5003 22.8977 13.6583 23.2793 13.9396 23.5606C14.2209 23.8419 14.6025 23.9999 15.0003 23.9999C15.3981 23.9999 15.7796 23.8419 16.0609 23.5606C16.3422 23.2793 16.5003 22.8977 16.5003 22.4999V10.9649L19.5963 14.0609C19.7356 14.2003 19.901 14.3108 20.0831 14.3862C20.2651 14.4616 20.4602 14.5004 20.6573 14.5004C20.8543 14.5004 21.0494 14.4616 21.2315 14.3862C21.4135 14.3108 21.5789 14.2003 21.7183 14.0609C21.8576 13.9216 21.9681 13.7562 22.0435 13.5741C22.1189 13.3921 22.1578 13.197 22.1578 12.9999C22.1578 12.8029 22.1189 12.6078 22.0435 12.4257C21.9681 12.2437 21.8576 12.0783 21.7183 11.9389L16.0603 6.28292Z" fill="white"/>
</g>
<defs>
<clipPath id="clip0_1821_904">
<rect width="24" height="24" fill="white" transform="translate(3 3)"/>
</clipPath>
</defs>
</svg>
