<svg width="25" height="24" viewBox="0 0 25 24" fill="none" xmlns="http://www.w3.org/2000/svg">
<path fill-rule="evenodd" clip-rule="evenodd" d="M8.66 4C8.13121 4.00017 7.61186 4.14011 7.15456 4.40563C6.69727 4.67116 6.31828 5.05284 6.056 5.512L4.063 9H2.9C2.79391 9 2.69217 9.04214 2.61716 9.11716C2.54214 9.19217 2.5 9.29391 2.5 9.4V9.875C2.4998 10.0536 2.55936 10.2271 2.66917 10.3679C2.77899 10.5087 2.93276 10.6087 3.106 10.652L3.13 10.657C2.71244 11.5237 2.55376 12.4924 2.673 13.447L3.398 19.248C3.45846 19.7318 3.69356 20.1768 4.0591 20.4995C4.42464 20.8221 4.89544 21.0001 5.383 21H5.5C6.03043 21 6.53914 20.7893 6.91421 20.4142C7.28929 20.0391 7.5 19.5304 7.5 19H17.5C17.5 19.5304 17.7107 20.0391 18.0858 20.4142C18.4609 20.7893 18.9696 21 19.5 21H19.617C20.1046 21.0001 20.5754 20.8221 20.9409 20.4995C21.3064 20.1768 21.5415 19.7318 21.602 19.248L22.327 13.448C22.4462 12.4934 22.2876 11.5247 21.87 10.658L21.894 10.652C22.0672 10.6087 22.221 10.5087 22.3308 10.3679C22.4406 10.2271 22.5002 10.0536 22.5 9.875V9.4C22.5 9.29391 22.4579 9.19217 22.3828 9.11716C22.3078 9.04214 22.2061 9 22.1 9H20.937L18.944 5.512C18.6817 5.05284 18.3027 4.67116 17.8454 4.40563C17.3881 4.14011 16.8688 4.00017 16.34 4H8.66ZM18.922 9.504L17.208 6.504C17.1205 6.3508 16.994 6.22348 16.8414 6.13496C16.6888 6.04644 16.5154 5.99988 16.339 6H8.661C8.48457 5.99988 8.31124 6.04644 8.15862 6.13496C8.006 6.22348 7.87951 6.3508 7.792 6.504L6.078 9.504C5.99114 9.65606 5.94574 9.82826 5.94633 10.0034C5.94692 10.1785 5.99349 10.3504 6.08137 10.5019C6.16926 10.6533 6.29538 10.7791 6.44711 10.8665C6.59885 10.9539 6.77088 10.9999 6.946 11H18.054C18.2291 10.9999 18.4012 10.9539 18.5529 10.8665C18.7046 10.7791 18.8307 10.6533 18.9186 10.5019C19.0065 10.3504 19.0531 10.1785 19.0537 10.0034C19.0543 9.82826 19.0089 9.65606 18.922 9.504ZM5.5 15.039V14.339C5.49995 14.2524 5.52241 14.1672 5.56518 14.0919C5.60794 14.0166 5.66955 13.9536 5.74395 13.9093C5.81836 13.8649 5.90301 13.8406 5.98962 13.8388C6.07623 13.837 6.16182 13.8578 6.238 13.899L8.98 15.379C9.353 15.581 9.198 16.148 8.774 16.131L6.46 16.038C6.20212 16.0277 5.95822 15.9181 5.77931 15.7321C5.60039 15.5461 5.50031 15.2981 5.5 15.04V15.039ZM19.5 14.339V15.039C19.5002 15.2974 19.4004 15.5459 19.2214 15.7323C19.0424 15.9188 18.7982 16.0287 18.54 16.039L16.226 16.131C15.802 16.148 15.646 15.581 16.02 15.379L18.762 13.899C18.8382 13.8578 18.9238 13.837 19.0104 13.8388C19.097 13.8406 19.1816 13.8649 19.256 13.9093C19.3305 13.9536 19.3921 14.0166 19.4348 14.0919C19.4776 14.1672 19.5 14.2524 19.5 14.339Z" fill="white"/>
</svg>
