<svg width="23" height="26" viewBox="0 0 23 26" fill="none" xmlns="http://www.w3.org/2000/svg">
<path d="M0 2.58333C0 1.89819 0.298511 1.24111 0.829864 0.756642C1.36122 0.272173 2.08189 0 2.83333 0H14.1667C14.5424 7.31566e-05 14.9026 0.136208 15.1682 0.378459L22.2516 6.83679C22.5173 7.07897 22.6666 7.40745 22.6667 7.75V23.25C22.6667 23.9352 22.3681 24.5922 21.8368 25.0767C21.3054 25.5612 20.5848 25.8333 19.8333 25.8333H2.83333C2.08189 25.8333 1.36122 25.5612 0.829864 25.0767C0.298511 24.5922 0 23.9352 0 23.25V2.58333ZM13.4583 2.58333H2.83333V13V23.25H19.8333V8.45354L13.4583 2.58333Z" fill="#E3E3E3"/>
<path d="M18.4167 11.3904C18.4167 11.1101 18.357 10.8413 18.2507 10.6431C18.1444 10.4449 18.0003 10.3336 17.85 10.3336H13.3167C13.1664 10.3336 13.0222 10.4449 12.916 10.6431C12.8097 10.8413 12.75 11.1101 12.75 11.3904C12.75 11.6707 12.8097 11.9395 12.916 12.1377C13.0222 12.3359 13.1664 12.4472 13.3167 12.4472H17.85C18.0003 12.4472 18.1444 12.3359 18.2507 12.1377C18.357 11.9395 18.4167 11.6707 18.4167 11.3904ZM18.4167 17.0268C18.4167 16.7465 18.357 16.4777 18.2507 16.2795C18.1444 16.0813 18.0003 15.9699 17.85 15.9699H13.3167C13.1664 15.9699 13.0222 16.0813 12.916 16.2795C12.8097 16.4777 12.75 16.7465 12.75 17.0268C12.75 17.307 12.8097 17.5759 12.916 17.774C13.0222 17.9722 13.1664 18.0836 13.3167 18.0836H17.85C18.0003 18.0836 18.1444 17.9722 18.2507 17.774C18.357 17.5759 18.4167 17.307 18.4167 17.0268Z" fill="#E3E3E3"/>
<path d="M9.89475 9.04175C10.008 9.04175 10.1131 9.06335 10.2102 9.10655C10.3072 9.14974 10.3935 9.21166 10.469 9.2923C10.5445 9.37294 10.6011 9.46366 10.6388 9.56446C10.6766 9.66526 10.6981 9.77902 10.7035 9.90574C10.7035 10.0209 10.6833 10.1318 10.6429 10.2384C10.6024 10.3449 10.5445 10.4385 10.469 10.5192L7.25815 13.9535C7.18266 14.0342 7.09505 14.0961 6.9953 14.1393C6.89555 14.1825 6.79176 14.2055 6.68392 14.2084C6.57608 14.2084 6.47229 14.1868 6.37254 14.1436C6.2728 14.1004 6.18518 14.0371 6.10969 13.9535L4.64581 12.3897C4.57033 12.3091 4.51237 12.2155 4.47193 12.1089C4.43149 12.0024 4.40992 11.8915 4.40723 11.7763C4.40723 11.6553 4.42879 11.543 4.47193 11.4393C4.51506 11.3356 4.57302 11.2435 4.64581 11.1628C4.7186 11.0822 4.80352 11.0217 4.90058 10.9814C4.99763 10.9411 5.10412 10.918 5.22004 10.9123C5.32788 10.9123 5.43167 10.9339 5.53142 10.9771C5.63117 11.0203 5.71879 11.0822 5.79427 11.1628L6.68392 12.1132L9.32052 9.2923C9.39601 9.21166 9.48362 9.14974 9.58337 9.10655C9.68312 9.06335 9.78691 9.04175 9.89475 9.04175Z" fill="#E3E3E3"/>
<path d="M9.89475 14.2085C10.008 14.2085 10.1131 14.2301 10.2102 14.2733C10.3072 14.3165 10.3935 14.3784 10.469 14.4591C10.5445 14.5397 10.6011 14.6304 10.6388 14.7312C10.6766 14.832 10.6981 14.9458 10.7035 15.0725C10.7035 15.1877 10.6833 15.2986 10.6429 15.4051C10.6024 15.5117 10.5445 15.6053 10.469 15.6859L7.25815 19.1203C7.18266 19.2009 7.09505 19.2629 6.9953 19.3061C6.89555 19.3493 6.79176 19.3723 6.68392 19.3752C6.57608 19.3752 6.47229 19.3536 6.37254 19.3104C6.2728 19.2672 6.18518 19.2038 6.10969 19.1203L4.64581 17.5565C4.57033 17.4758 4.51237 17.3822 4.47193 17.2757C4.43149 17.1691 4.40992 17.0582 4.40723 16.943C4.40723 16.8221 4.42879 16.7098 4.47193 16.6061C4.51506 16.5024 4.57302 16.4102 4.64581 16.3296C4.7186 16.249 4.80352 16.1885 4.90058 16.1482C4.99763 16.1078 5.10412 16.0848 5.22004 16.079C5.32788 16.079 5.43167 16.1006 5.53142 16.1438C5.63117 16.187 5.71879 16.249 5.79427 16.3296L6.68392 17.28L9.32052 14.4591C9.39601 14.3784 9.48362 14.3165 9.58337 14.2733C9.68312 14.2301 9.78691 14.2085 9.89475 14.2085Z" fill="#E3E3E3"/>
</svg>
