<svg width="22" height="26" viewBox="0 0 22 26" fill="none" xmlns="http://www.w3.org/2000/svg">
<path d="M0.919922 2.58333C0.919922 1.89819 1.19455 1.24111 1.6834 0.756642C2.17224 0.272173 2.83526 0 3.52659 0H13.9533C14.2989 7.31566e-05 14.6303 0.136208 14.8747 0.378459L21.3914 6.83679C21.6358 7.07897 21.7732 7.40745 21.7732 7.75V23.25C21.7732 23.9352 21.4986 24.5922 21.0098 25.0767C20.5209 25.5612 19.8579 25.8333 19.1666 25.8333H3.52659C2.83526 25.8333 2.17224 25.5612 1.6834 25.0767C1.19455 24.5922 0.919922 23.9352 0.919922 23.25V2.58333ZM13.3016 2.58333H3.52659V13V23.25H19.1666V8.45354L13.3016 2.58333Z" stroke="none"/>
<path d="M17.8633 11.3904C17.8633 11.1101 17.8083 10.8413 17.7106 10.6431C17.6128 10.4449 17.4802 10.3336 17.3419 10.3336H13.1713C13.033 10.3336 12.9004 10.4449 12.8026 10.6431C12.7048 10.8413 12.6499 11.1101 12.6499 11.3904C12.6499 11.6707 12.7048 11.9395 12.8026 12.1377C12.9004 12.3359 13.033 12.4472 13.1713 12.4472H17.3419C17.4802 12.4472 17.6128 12.3359 17.7106 12.1377C17.8083 11.9395 17.8633 11.6707 17.8633 11.3904ZM17.8633 17.0268C17.8633 16.7465 17.8083 16.4777 17.7106 16.2795C17.6128 16.0813 17.4802 15.9699 17.3419 15.9699H13.1713C13.033 15.9699 12.9004 16.0813 12.8026 16.2795C12.7048 16.4777 12.6499 16.7465 12.6499 17.0268C12.6499 17.307 12.7048 17.5759 12.8026 17.774C12.9004 17.9722 13.033 18.0836 13.1713 18.0836H17.3419C17.4802 18.0836 17.6128 17.9722 17.7106 17.774C17.8083 17.5759 17.8633 17.307 17.8633 17.0268Z" stroke="none"/>
<path d="M10.0231 9.04175C10.1273 9.04175 10.224 9.06335 10.3133 9.10655C10.4026 9.14974 10.4819 9.21166 10.5514 9.2923C10.6208 9.37294 10.6729 9.46366 10.7076 9.56446C10.7424 9.66526 10.7622 9.77902 10.7672 9.90574C10.7672 10.0209 10.7486 10.1318 10.7114 10.2384C10.6742 10.3449 10.6208 10.4385 10.5514 10.5192L7.59742 13.9535C7.52797 14.0342 7.44736 14.0961 7.3556 14.1393C7.26383 14.1825 7.16834 14.2055 7.06913 14.2084C6.96992 14.2084 6.87443 14.1868 6.78266 14.1436C6.69089 14.1004 6.61029 14.0371 6.54084 13.9535L5.19407 12.3897C5.12462 12.3091 5.0713 12.2155 5.03409 12.1089C4.99689 12.0024 4.97705 11.8915 4.97457 11.7763C4.97457 11.6553 4.99441 11.543 5.03409 11.4393C5.07378 11.3356 5.1271 11.2435 5.19407 11.1628C5.26104 11.0822 5.33916 11.0217 5.42845 10.9814C5.51774 10.9411 5.61571 10.918 5.72236 10.9123C5.82157 10.9123 5.91706 10.9339 6.00883 10.9771C6.1006 11.0203 6.1812 11.0822 6.25065 11.1628L7.06913 12.1132L9.4948 9.2923C9.56425 9.21166 9.64486 9.14974 9.73662 9.10655C9.82839 9.06335 9.92388 9.04175 10.0231 9.04175Z" stroke="none"/>
<path d="M10.0231 14.2085C10.1273 14.2085 10.224 14.2301 10.3133 14.2733C10.4026 14.3165 10.4819 14.3784 10.5514 14.4591C10.6208 14.5397 10.6729 14.6304 10.7076 14.7312C10.7424 14.832 10.7622 14.9458 10.7672 15.0725C10.7672 15.1877 10.7486 15.2986 10.7114 15.4051C10.6742 15.5117 10.6208 15.6053 10.5514 15.6859L7.59742 19.1203C7.52797 19.2009 7.44736 19.2629 7.3556 19.3061C7.26383 19.3493 7.16834 19.3723 7.06913 19.3752C6.96992 19.3752 6.87443 19.3536 6.78266 19.3104C6.69089 19.2672 6.61029 19.2038 6.54084 19.1203L5.19407 17.5565C5.12462 17.4758 5.0713 17.3822 5.03409 17.2757C4.99689 17.1691 4.97705 17.0582 4.97457 16.943C4.97457 16.8221 4.99441 16.7098 5.03409 16.6061C5.07378 16.5024 5.1271 16.4102 5.19407 16.3296C5.26104 16.249 5.33916 16.1885 5.42845 16.1482C5.51774 16.1078 5.61571 16.0848 5.72236 16.079C5.82157 16.079 5.91706 16.1006 6.00883 16.1438C6.1006 16.187 6.1812 16.249 6.25065 16.3296L7.06913 17.28L9.4948 14.4591C9.56425 14.3784 9.64486 14.3165 9.73662 14.2733C9.82839 14.2301 9.92388 14.2085 10.0231 14.2085Z" stroke="none"/>
</svg>
