<svg width="19" height="26" viewBox="0 0 19 26" fill="white" xmlns="http://www.w3.org/2000/svg">
<path d="M11.255 6.50008C12.4982 6.50008 13.5061 5.53003 13.5061 4.33341C13.5061 3.1368 12.4982 2.16675 11.255 2.16675C10.0117 2.16675 9.00391 3.1368 9.00391 4.33341C9.00391 5.53003 10.0117 6.50008 11.255 6.50008Z" fill="white"/>
<path d="M12.3561 13.2924C12.6319 13.6911 13.0438 13.9934 13.5166 14.145L16.5274 15.1114L17.2398 13.0574L14.229 12.091L12.3572 9.3881C12.1401 9.07465 11.8418 8.82111 11.4917 8.65252L9.87768 7.87577C9.3972 7.64574 8.84715 7.5885 8.32668 7.71435L4.73283 8.57777C4.41733 8.65328 4.12257 8.79367 3.86881 8.98928C3.61506 9.1849 3.40834 9.43109 3.26287 9.71093L1.24365 13.599L3.25725 14.5686L5.27647 10.6805L7.77855 10.0782L5.74807 19.1197L1.61283 21.8573L2.88807 23.6426L7.02443 20.9039C7.49829 20.5898 7.82694 20.1185 7.94738 19.5768L8.52928 16.9899L11.3623 19.0352L12.4034 24.0456L14.6106 23.6198L13.5695 18.6073C13.4601 18.0851 13.1548 17.62 12.7118 17.3008L10.2682 15.5371L10.9965 11.3284L12.3561 13.2924Z" fill="white"/>
</svg>
