<svg width="23" height="23" viewBox="0 0 23 23" fill="none" xmlns="http://www.w3.org/2000/svg">
<rect x="0.25" y="0.25" width="22.5" height="22.5" rx="11.25" fill="#F8F8F8"/>
<rect x="0.25" y="0.25" width="22.5" height="22.5" rx="11.25" stroke="#DEDEDE" stroke-width="0.5"/>
<path d="M11.5723 18C9.73769 18 8.18349 17.3707 6.90972 16.1122C5.63657 14.8531 5 13.3166 5 11.5028C5 9.68898 5.63657 8.15188 6.90972 6.8915C8.18287 5.63112 9.73706 5.00062 11.5723 5C12.6883 5 13.7333 5.26217 14.7073 5.7865C15.6806 6.31083 16.4652 7.04286 17.0611 7.98257V5.92857H18V9.85643H14.0955V8.92786H16.5635C16.074 8.00238 15.3861 7.27098 14.4998 6.73364C13.6135 6.19631 12.6376 5.92795 11.5723 5.92857C10.0075 5.92857 8.67736 6.47024 7.58197 7.55357C6.48659 8.6369 5.9389 9.95238 5.9389 11.5C5.9389 13.0476 6.48659 14.3631 7.58197 15.4464C8.67736 16.5298 10.0075 17.0714 11.5723 17.0714C12.7772 17.0714 13.8648 16.731 14.835 16.05C15.8052 15.369 16.4859 14.4714 16.8771 13.3571H17.8742C17.4598 14.7475 16.673 15.8689 15.5138 16.7214C14.3546 17.5738 13.0407 18 11.5723 18Z" fill="#474747"/>
</svg>
